<?xml version="1.0" encoding="utf-8"?>
<!-- Generator: Adobe Illustrator 24.1.2, SVG Export Plug-In . SVG Version: 6.00 Build 0)  -->
<svg version="1.1" id="Layer_1" xmlns="http://www.w3.org/2000/svg" xmlns:xlink="http://www.w3.org/1999/xlink" x="0px" y="0px"
	 viewBox="0 0 155 30" style="enable-background:new 0 0 155 30;" xml:space="preserve">
<style type="text/css">
	.st0{fill:#FFFFFF;}
</style>
<g>
	<g>
		<path class="st0" d="M2.3,14.3c-0.8,0-1.5,0-2.3,0v4.9h7.1L0,24v6l9.6-6.4l9.1,5.7v-5.7l-7-4.3h7v-4.9c-0.7,0-1.5,0-2.2,0
			C11.7,14.3,7,14.3,2.3,14.3z"/>
		<path class="st0" d="M18.7,6.1l0-6.1H0v6.1c0,3,0.8,5.5,2.3,7.2l7.2,7.4l7-7.4C17.9,11.5,18.7,9.1,18.7,6.1z M9.3,11.3
			c-2.9,0-4.7-2-4.7-5.3V4.8H14V6C14,9.3,12.3,11.3,9.3,11.3z"/>
	</g>
	<g>
		<path class="st0" d="M45.4,14.7c0,4.3-2.8,7.1-7.2,7.1h-3.9V7.6l3.9,0C42.6,7.6,45.4,10.3,45.4,14.7z M43.8,14.7
			c0-3.3-2.2-5.5-5.6-5.5h-2.3v11h2.4C41.6,20.1,43.8,18,43.8,14.7z"/>
		<path class="st0" d="M46.4,14.7c0-4,3.3-7.3,7.3-7.3c4,0,7.3,3.3,7.3,7.3c0,4-3.3,7.3-7.3,7.3C49.7,21.9,46.4,18.6,46.4,14.7z
			 M59.4,14.6c0-3.1-2.5-5.7-5.7-5.7c-3.1,0-5.6,2.6-5.6,5.7c0,3.1,2.5,5.6,5.6,5.6C56.8,20.3,59.4,17.8,59.4,14.6z"/>
		<path class="st0" d="M62.6,16.2V7.6h1.6v8.7c0,2.4,1.5,4.1,3.6,4.1c2.1,0,3.6-1.7,3.6-4.1V7.6h1.6v8.7c0,3.3-2.2,5.7-5.2,5.7
			C64.9,21.9,62.6,19.5,62.6,16.2z"/>
		<path class="st0" d="M88.8,15.2c0,4-3.1,6.7-6.7,6.7c-4.1,0-7.3-3.3-7.3-7.3S78,7.4,82,7.4c1.7,0,3.9,0.9,5.1,2.1l-0.9,1.3
			C85.2,9.7,83.4,9,82,9c-3,0-5.6,2.5-5.6,5.7c0,3.1,2.5,5.6,5.8,5.6c2.8,0,4.9-1.9,4.9-4.4c0-0.1,0-0.2,0-0.3H82v-1.4h6.7
			C88.8,14.5,88.8,14.8,88.8,15.2z"/>
		<path class="st0" d="M97.7,21.7l-3.6-5.4v5.4h-3.8V7.6h3.8v5.3l3.3-5.3h4.3l-4.3,6.9l4.9,7.3H97.7z"/>
		<path class="st0" d="M102.6,16.6v-9h3.8v9c0,1.2,1,2,2.1,2c1.1,0,2.1-0.8,2.1-2v-9h3.8v9c0,3.2-2.6,5.5-5.9,5.5
			C105.3,22.1,102.6,19.8,102.6,16.6z"/>
		<path class="st0" d="M125.5,18.2v3.5h-9.2V7.6h3.8v10.6H125.5z"/>
		<path class="st0" d="M136.6,20.1h-5.3l-0.7,1.7h-4.1l6.6-14.3h1.8l6.6,14.3h-4.1L136.6,20.1z M135.4,17.3L134,14l-1.5,3.4H135.4z"
			/>
		<path class="st0" d="M149.7,21.7l-3.6-5.4v5.4h-3.7V7.6h3.7v5.3l3.3-5.3h4.3l-4.3,6.9l4.9,7.3H149.7z"/>
	</g>
</g>
</svg>
